<svg width="70" height="68" viewBox="0 0 70 68" fill="none" xmlns="http://www.w3.org/2000/svg">
<g filter="url(#filter0_d_2638_38993)">
<path d="M60.2616 29.3118C60.2551 29.005 60.1709 28.7049 60.0169 28.4395C59.584 27.6852 58.6315 27.2052 57.1881 27.0127C56.3529 26.9012 55.5676 26.7648 54.854 26.607C52.6667 26.1201 50.4252 25.9202 48.1861 26.0126C46.3024 26.0834 44.4237 26.2538 42.5579 26.5231C42.1626 26.5831 41.7035 26.6563 41.1945 26.7379C37.4148 27.3413 29.7248 28.5688 24.9483 27.6226C24.2995 26.3975 24.1877 25.3029 24.6165 24.3661C25.5475 22.3315 28.6997 21.3782 29.8409 21.094C31.1919 23.158 32.9092 24.4282 34.9493 24.8717C38.7439 25.6963 42.239 23.347 42.3861 23.2468C42.4983 23.1701 42.583 23.0594 42.6278 22.931C42.6725 22.8026 42.675 22.6632 42.6349 22.5333C42.5947 22.4034 42.5141 22.2897 42.4047 22.209C42.2953 22.1282 42.1629 22.0846 42.0269 22.0845C41.6821 22.0602 41.3494 21.9469 41.0614 21.7556C40.4261 21.3696 39.9065 20.8196 39.5573 20.1634C38.2569 17.7675 36.3798 16.8743 35.3016 16.5472C37.4961 11.2911 34.6428 7.8556 34.5142 7.70557L34.4967 7.68675C33.8086 6.94548 34.1956 5.60167 34.1991 5.59037C34.2352 5.47208 34.236 5.34585 34.2015 5.22709C34.167 5.10833 34.0987 5.00219 34.0049 4.92163C33.911 4.84106 33.7958 4.78956 33.6732 4.7734C33.5506 4.75725 33.4259 4.77714 33.3144 4.83065C30.2838 6.28138 28.4792 8.98407 28.0949 12.6462C27.9582 14.0364 28.0072 15.4386 28.2407 16.8158C26.7789 16.7177 25.3112 16.7492 23.8549 16.9099C23.2792 16.9664 12.3514 18.1379 7.50135 26.7747C5.36676 30.576 5.16723 35.1397 6.96714 38.9826C8.43537 42.1178 10.8627 44.5304 14.1848 46.1666C13.2139 47.1946 12.4167 48.3738 11.8246 49.658C9.76921 54.1108 5.42455 53.4575 5.24196 53.4276C5.10733 53.4048 4.96894 53.4259 4.84722 53.4878C4.7255 53.5497 4.6269 53.649 4.56596 53.7712C4.50502 53.8934 4.48497 54.032 4.50877 54.1664C4.53258 54.3009 4.59897 54.4241 4.69815 54.518C6.76347 56.4719 9.3982 57.6229 11.9605 57.4419C16.8222 57.0983 20.8017 52.8984 22.2859 51.091C22.8971 50.3367 23.5759 49.6398 24.3138 49.0089C24.3415 49.0117 24.3693 49.0126 24.3972 49.0117C27.4878 48.8147 31.4515 49.0287 31.4816 49.0306C31.5862 49.0379 31.6886 49.043 31.7929 49.0494C30.6089 49.8888 29.6304 50.9855 28.9308 52.2571C27.9081 54.0918 25.2879 57.923 21.2339 57.9503C21.9638 57.3989 22.5344 56.6638 22.8875 55.82C23.2406 54.9762 23.3636 54.0538 23.2438 53.1469C23.236 53.0627 23.2114 52.981 23.1716 52.9064C23.1318 52.8318 23.0776 52.7659 23.012 52.7125C22.9465 52.6591 22.871 52.6193 22.7899 52.5954C22.7088 52.5715 22.6238 52.564 22.5398 52.5733C22.4558 52.5826 22.3744 52.6085 22.3005 52.6496C22.2267 52.6906 22.1617 52.746 22.1094 52.8124C22.0571 52.8788 22.0186 52.955 21.9961 53.0365C21.9735 53.1179 21.9674 53.2031 21.9782 53.2869C22.0984 54.2371 21.8759 55.1991 21.3506 56C20.7819 56.8128 19.9494 57.4036 18.9944 57.6721C18.8551 57.7016 18.7297 57.777 18.6382 57.8862C18.5468 57.9955 18.4946 58.1322 18.49 58.2746C18.4855 58.4169 18.5288 58.5567 18.613 58.6716C18.6972 58.7865 18.8176 58.8698 18.9547 58.9082C19.6951 59.1195 20.4609 59.2284 21.2309 59.2318C25.9339 59.2318 28.8947 54.9374 30.0433 52.8764C30.7117 51.6507 31.6809 50.6151 32.8597 49.8671C33.3059 49.592 33.7741 49.3541 34.2594 49.1557C34.2669 49.1525 34.2731 49.1478 34.2805 49.1444C34.4796 49.1469 34.679 49.1497 34.8758 49.1497C47.7877 49.1497 55.5932 43.8119 58.4879 41.3671C59.1766 40.785 60.0488 40.4649 60.9506 40.4636H62.527C63.188 40.4725 63.8365 40.283 64.3887 39.9196C65.7926 38.9716 65.5977 37.4426 65.2518 36.6336C65.2758 35.6602 65.1211 31.0876 60.2616 29.3118ZM21.3018 50.2831C20.2262 51.5926 16.3686 55.8885 11.8805 56.1711C10.1457 56.2803 8.4766 55.779 6.89919 54.6791C8.71999 54.4636 11.4336 53.5441 12.9862 50.1803C13.0033 50.1412 14.7377 46.2496 17.4528 45.5708C17.6154 45.5287 17.7549 45.4241 17.8407 45.2797C17.9266 45.1354 17.9519 44.9629 17.9112 44.7999C17.8705 44.6369 17.767 44.4966 17.6233 44.4096C17.4796 44.3226 17.3074 44.2958 17.1441 44.3352C16.4552 44.5169 15.8074 44.8287 15.2358 45.2538C11.9275 43.7464 9.53222 41.4573 8.12046 38.4425C6.4941 34.9709 6.67782 30.8423 8.61175 27.3986C13.1567 19.3044 23.8776 18.1871 23.9853 18.1769C23.9881 18.1769 23.9906 18.1756 23.9934 18.1752C23.9962 18.1748 23.9989 18.1752 24.0015 18.1752C24.0286 18.172 26.7155 17.8541 28.9494 18.1735C29.0535 18.1883 29.1596 18.177 29.2583 18.1408C29.357 18.1046 29.4452 18.0446 29.515 17.966C29.5849 17.8875 29.6342 17.7929 29.6587 17.6907C29.6831 17.5884 29.6819 17.4818 29.6551 17.3801C29.3072 15.8602 29.2091 14.2938 29.3647 12.7424C29.664 9.97042 30.8239 7.90021 32.8179 6.57145C32.8168 7.29421 33.0768 7.99303 33.5501 8.53927C33.7329 8.76138 36.199 11.9025 33.8249 16.7166C33.7792 16.8093 33.7567 16.9117 33.7594 17.015C33.7621 17.1183 33.7899 17.2195 33.8405 17.3096C33.891 17.3998 33.9627 17.4763 34.0495 17.5325C34.1362 17.5887 34.2353 17.623 34.3382 17.6323C34.3635 17.6346 36.8758 17.8947 38.4388 20.7717C38.8974 21.6293 39.5787 22.3475 40.4109 22.8506C40.4177 22.8544 40.4245 22.8585 40.4312 22.8627C39.2053 23.4227 37.2241 24.0674 35.2118 23.6261C33.4048 23.2308 31.8816 22.0261 30.6852 20.0444C30.618 19.9334 30.5186 19.8455 30.4002 19.7925C30.2817 19.7395 30.1499 19.724 30.0224 19.7479C29.8131 19.7871 24.8751 20.7478 23.4601 23.8338C22.9895 24.8621 22.9609 25.9855 23.372 27.1862C22.7269 26.9634 22.1372 26.6045 21.6429 26.1338C21.2706 25.769 20.9879 25.3227 20.8173 24.8301C20.7916 24.7502 20.7504 24.6761 20.696 24.6122C20.6416 24.5483 20.5751 24.4958 20.5004 24.4577C20.4256 24.4195 20.344 24.3966 20.2604 24.3901C20.1767 24.3836 20.0925 24.3937 20.0128 24.4199C19.933 24.4461 19.8593 24.4877 19.7957 24.5425C19.7321 24.5973 19.68 24.6641 19.6423 24.7391C19.6046 24.8141 19.5822 24.8958 19.5762 24.9795C19.5702 25.0632 19.5809 25.1473 19.6075 25.2269C19.8387 25.9063 20.2248 26.5226 20.7354 27.027C24.3661 30.7151 35.4441 28.9459 41.3958 27.9955C41.9008 27.9147 42.3558 27.842 42.749 27.7826C44.5696 27.5202 46.4028 27.3542 48.2409 27.2852C50.3692 27.1973 52.4998 27.3871 54.579 27.8499C55.3276 28.0154 56.1487 28.1585 57.0195 28.2746C58.3494 28.4519 58.7115 28.7778 58.9865 29.3041C58.6874 29.4002 58.3786 29.4634 58.0657 29.4923C57.5587 29.5417 57.0476 29.5299 56.5434 29.4569C53.217 29.0393 49.8403 29.5757 46.807 31.0035C44.6957 32.0323 42.8402 33.5185 41.3752 35.3541C39.9925 37.0528 36.1423 41.0091 30.2724 41.056C30.1054 41.0594 29.9464 41.1284 29.8297 41.2479C29.7131 41.3675 29.6481 41.5281 29.6488 41.6952C29.6494 41.8622 29.7157 42.0223 29.8333 42.1409C29.9509 42.2596 30.1104 42.3273 30.2774 42.3294H30.2827C36.6934 42.2784 40.8664 37.9966 42.3627 36.1581C43.7094 34.4686 45.4154 33.1002 47.357 32.1523C50.1658 30.8292 53.2929 30.3321 56.3735 30.719C56.9794 30.8055 57.5935 30.8187 58.2025 30.7584C58.6837 30.7163 59.1564 30.6061 59.6066 30.4312C62.7159 31.4723 63.6322 33.7818 63.8904 35.2915C62.7844 34.5433 61.4877 34.1264 60.1528 34.0899H60.1453C53.0748 33.4737 47.1795 38.8696 46.7241 39.2979C41.4616 43.5341 32.8888 44.6061 32.8034 44.6166C32.791 44.6181 32.7782 44.6202 32.7657 44.6223L28.3262 45.4266C28.0875 45.4627 26.1626 45.811 23.5881 47.9533C22.7535 48.6552 21.9879 49.4354 21.3018 50.2831ZM57.6395 40.4171C55.9324 41.8292 54.0675 43.0386 52.0819 44.0212C52.6026 43.1843 53.0325 42.2942 53.3643 41.366C53.4224 41.2074 53.4151 41.0323 53.3441 40.8791C53.273 40.7259 53.1441 40.6072 52.9855 40.5491C52.907 40.5204 52.8236 40.5074 52.74 40.5108C52.6565 40.5143 52.5745 40.5342 52.4986 40.5694C52.3454 40.6404 52.2267 40.7694 52.1686 40.928C50.8886 44.4229 49.1921 45.2979 49.1495 45.3189C49.1439 45.3216 49.1394 45.3255 49.1339 45.3282C47.9656 45.7808 46.7743 46.1717 45.565 46.4994C46.335 45.5356 46.9169 44.4357 47.2804 43.2568C48.393 39.8466 49.5957 38.6908 49.7734 38.534C51.1531 37.5876 52.6427 36.8122 54.2095 36.2251C53.8226 36.7849 53.4897 37.3801 53.2152 38.0028C53.1785 38.0787 53.1577 38.1613 53.154 38.2455C53.1504 38.3297 53.1639 38.4138 53.1939 38.4926C53.2238 38.5713 53.2696 38.6432 53.3283 38.7037C53.387 38.7642 53.4574 38.8121 53.5352 38.8444C53.6912 38.8916 53.8584 38.8858 54.0107 38.8279C54.163 38.77 54.2918 38.6633 54.377 38.5244C55.4458 36.1457 56.6151 35.5953 56.8028 35.5196C57.8778 35.3226 58.9743 35.2697 60.0632 35.3622C60.0864 35.3643 60.1116 35.3649 60.1351 35.3647H60.1523C59.7537 36.0077 59.4547 36.7072 59.2653 37.4396C58.9511 38.5405 58.3957 39.5576 57.6395 40.4171ZM39.1829 47.6642C39.5771 47.2066 39.9 46.6922 40.1408 46.1383C40.1438 46.1312 40.147 46.1236 40.1498 46.1165C40.1562 46.1005 40.7697 44.5703 41.6369 43.6069C43.4831 42.8904 45.234 41.9491 46.8501 40.8043C46.5558 41.4764 46.2954 42.1629 46.07 42.8611C44.9395 46.3271 42.9001 47.0882 42.6872 47.1591C41.5765 47.3701 40.41 47.5427 39.1829 47.6647V47.6642ZM26.1852 47.6655C27.5795 46.8393 28.4868 46.691 28.5158 46.6867C28.5201 46.6867 28.524 46.6842 28.5284 46.6836C28.5327 46.6831 28.5389 46.6836 28.5444 46.6821L32.6065 45.9461C32.1982 46.6533 31.6401 47.2624 30.9713 47.7308C30.0371 47.6913 28.1314 47.6271 26.1852 47.666V47.6655ZM32.7923 47.8277C33.3689 47.2103 33.8236 46.4894 34.1325 45.7031C35.9818 45.3807 37.806 44.9278 39.5913 44.3478C39.3598 44.7652 39.1524 45.1954 38.9702 45.6365C38.3042 47.145 37.2331 47.6977 36.9372 47.8262C35.616 47.887 34.2351 47.8925 32.7919 47.8283L32.7923 47.8277ZM63.6762 38.8647C63.3345 39.0853 62.9347 39.1988 62.528 39.1906H60.9506C60.5991 39.1917 60.2487 39.2296 59.9051 39.3035C60.1497 38.8143 60.3467 38.3026 60.4932 37.7756C60.8508 36.4768 61.3526 35.8311 61.5714 35.5973C62.5281 35.8711 63.3934 36.3978 64.0759 37.122C64.1884 37.3852 64.5062 38.3045 63.6758 38.8653L63.6762 38.8647Z" fill="#408F95"/>
<path d="M20.131 22.8518C20.2096 22.8803 20.2931 22.8931 20.3767 22.8893C20.4602 22.8856 20.5422 22.8654 20.6179 22.8299C20.6937 22.7944 20.7616 22.7443 20.818 22.6825C20.8743 22.6207 20.9179 22.5483 20.9463 22.4697C20.9827 22.3693 21.0219 22.2698 21.0639 22.1713C21.0967 22.0944 21.1139 22.0117 21.1147 21.9281C21.1155 21.8445 21.0998 21.7616 21.0686 21.684C21.0373 21.6065 20.9911 21.5359 20.9325 21.4762C20.8739 21.4165 20.8042 21.3689 20.7273 21.3362C20.6503 21.3035 20.5677 21.2862 20.4841 21.2854C20.4005 21.2846 20.3175 21.3003 20.24 21.3316C20.1624 21.3628 20.0918 21.4091 20.0321 21.4676C19.9725 21.5262 19.9249 21.5959 19.8922 21.6729C19.841 21.7931 19.793 21.9147 19.7489 22.0365C19.7205 22.1152 19.7078 22.1986 19.7116 22.2821C19.7154 22.3656 19.7356 22.4476 19.7711 22.5233C19.8066 22.599 19.8566 22.667 19.9184 22.7233C19.9802 22.7797 20.0524 22.8233 20.131 22.8518Z" fill="#408F95"/>
<path d="M36.7634 35.4389C36.8969 35.4391 37.0269 35.397 37.135 35.3188L37.7441 34.8802C37.8787 34.7805 37.9687 34.6319 37.9944 34.4664C38.0202 34.3009 37.9798 34.132 37.8819 33.9961C37.784 33.8602 37.6365 33.7684 37.4714 33.7405C37.3063 33.7126 37.1368 33.7508 36.9997 33.847L36.3907 34.2855C36.2813 34.3643 36.1998 34.4757 36.1577 34.6037C36.1157 34.7317 36.1154 34.8698 36.1568 34.998C36.1983 35.1262 36.2793 35.238 36.3883 35.3172C36.4973 35.3965 36.6287 35.439 36.7634 35.4389Z" fill="#408F95"/>
<path d="M25.9229 35.0003C26.2746 35.0003 26.5597 34.7152 26.5597 34.3635C26.5597 34.0118 26.2746 33.7267 25.9229 33.7267C25.5712 33.7267 25.2861 34.0118 25.2861 34.3635C25.2861 34.7152 25.5712 35.0003 25.9229 35.0003Z" fill="#408F95"/>
<path d="M19.0633 39.8824C18.938 39.8948 18.8192 39.9441 18.7219 40.024C18.6245 40.1039 18.5531 40.2109 18.5166 40.3314C18.4801 40.452 18.4801 40.5806 18.5167 40.7011C18.5533 40.8216 18.6248 40.9286 18.7222 41.0084C18.8196 41.0883 18.9384 41.1375 19.0638 41.1498C19.1891 41.1621 19.3153 41.137 19.4263 41.0776C19.5374 41.0183 19.6283 40.9273 19.6877 40.8162C19.747 40.7052 19.7721 40.579 19.7598 40.4537C19.7516 40.3704 19.7271 40.2896 19.6876 40.2158C19.6482 40.1421 19.5946 40.0768 19.5299 40.0237C19.4652 39.9707 19.3907 39.9309 19.3107 39.9066C19.2306 39.8824 19.1466 39.8741 19.0633 39.8824Z" fill="#408F95"/>
<path d="M15.786 32.522C15.6607 32.5344 15.5418 32.5837 15.4445 32.6636C15.3472 32.7435 15.2758 32.8505 15.2393 32.9711C15.2028 33.0916 15.2028 33.2202 15.2394 33.3407C15.276 33.4612 15.3475 33.5682 15.4449 33.648C15.5422 33.7279 15.6611 33.7771 15.7864 33.7894C15.9117 33.8017 16.0379 33.7766 16.149 33.7173C16.26 33.6579 16.351 33.5669 16.4103 33.4558C16.4697 33.3448 16.4948 33.2186 16.4824 33.0933C16.4743 33.01 16.4498 32.9292 16.4103 32.8554C16.3709 32.7816 16.3173 32.7163 16.2526 32.6633C16.1879 32.6102 16.1134 32.5704 16.0334 32.5462C15.9533 32.5219 15.8692 32.5137 15.786 32.522Z" fill="#408F95"/>
</g>
<defs>
<filter id="filter0_d_2638_38993" x="-1" y="0" width="72" height="72" filterUnits="userSpaceOnUse" color-interpolation-filters="sRGB">
<feFlood flood-opacity="0" result="BackgroundImageFix"/>
<feColorMatrix in="SourceAlpha" type="matrix" values="0 0 0 0 0 0 0 0 0 0 0 0 0 0 0 0 0 0 127 0" result="hardAlpha"/>
<feOffset dy="4"/>
<feGaussianBlur stdDeviation="2"/>
<feComposite in2="hardAlpha" operator="out"/>
<feColorMatrix type="matrix" values="0 0 0 0 0 0 0 0 0 0 0 0 0 0 0 0 0 0 0.25 0"/>
<feBlend mode="normal" in2="BackgroundImageFix" result="effect1_dropShadow_2638_38993"/>
<feBlend mode="normal" in="SourceGraphic" in2="effect1_dropShadow_2638_38993" result="shape"/>
</filter>
</defs>
</svg>
